<svg xmlns="http://www.w3.org/2000/svg" width="42" height="14" viewBox="0 0 42 14" fill="none">
<g clip-path="url(#clip0_14969_7443)">
<path d="M20.9972 5.53072C21.3576 5.53875 21.7089 5.64726 22.013 5.84442C22.317 6.04158 22.5621 6.31984 22.7215 6.64892C23.3768 8.18832 25.0174 13.7442 30.1904 13.9598C35.3338 14.2506 37.6346 13.0522 38.4179 11.6181C39.4366 9.89335 40.1066 7.97887 40.3886 5.98702C40.4654 5.64454 40.6312 5.32936 40.8687 5.07443C41.1062 4.8195 41.4066 4.6342 41.7385 4.53789C41.8039 4.51755 41.8616 4.47734 41.9039 4.42266C41.9461 4.36799 41.971 4.30146 41.975 4.23201C42.0246 3.22978 42.0246 2.22564 41.975 1.22341C41.9747 1.10109 41.9304 0.9831 41.8506 0.89167C41.7707 0.800241 41.6608 0.741679 41.5415 0.727C39.8713 0.436169 33.2597 -0.586748 28.9291 0.451218C26.5791 1.00781 24.1503 2.12599 23.0171 2.25636C21.6628 2.40334 20.297 2.40334 18.9428 2.25636C17.8195 2.12599 15.3906 1.00781 13.0307 0.451218C8.70017 -0.586748 2.08363 0.451212 0.418412 0.727C0.305959 0.745469 0.203267 0.803028 0.127814 0.88988C0.0523617 0.976731 0.00881265 1.08751 0.00457198 1.20337C-0.0470969 2.20554 -0.0470969 3.20979 0.00457198 4.21196C0.0082661 4.28079 0.0323655 4.34686 0.0737032 4.40147C0.115041 4.45608 0.171676 4.49664 0.236127 4.51783C0.568301 4.61365 0.868975 4.79881 1.10652 5.05382C1.34407 5.30882 1.50971 5.62427 1.58603 5.96698C1.86815 7.95879 2.53813 9.87323 3.55671 11.5981C4.34005 13.0322 6.63589 14.2306 11.7793 13.9398C16.9524 13.7241 18.5979 8.16826 19.2482 6.62886C19.4123 6.29978 19.6623 6.02314 19.9709 5.82939C20.2795 5.63564 20.6346 5.53229 20.9972 5.53072ZM36.8808 11.7585C35.59 13.1926 29.949 13.4734 27.8157 12.2951C24.6232 10.3595 23.7413 5.59591 24.5838 4.06152C26.0322 1.95049 32.1808 1.44906 32.1808 1.44906C33.3237 1.31869 37.7528 1.11311 38.4574 3.36454C39.4378 7.00996 38.1765 10.3345 36.8808 11.7585ZM3.537 3.36454C4.24151 1.11311 8.67062 1.31869 9.81361 1.44906C9.81361 1.44906 15.967 1.95049 17.4155 4.06152C18.2579 5.59591 17.3761 10.3595 14.1836 12.2951C12.0503 13.4734 6.40926 13.1926 5.11354 11.7585C3.81782 10.3244 2.55659 7.00996 3.537 3.37958V3.36454ZM40.6694 3.22414C40.5673 3.22315 40.4678 3.19142 40.3834 3.13297C40.299 3.07452 40.2334 2.99196 40.195 2.89567C40.1566 2.79938 40.1471 2.69367 40.1676 2.59187C40.1881 2.49007 40.2378 2.39673 40.3103 2.3236C40.3829 2.25047 40.475 2.20082 40.5753 2.18091C40.6755 2.16099 40.7792 2.1717 40.8735 2.2117C40.9677 2.25169 41.0482 2.31918 41.1048 2.40565C41.1614 2.49213 41.1917 2.59371 41.1917 2.69763C41.1967 2.76898 41.1867 2.84061 41.1623 2.9077C41.138 2.97479 41.0998 3.0358 41.0503 3.08662C41.0008 3.13744 40.9412 3.17688 40.8755 3.20233C40.8099 3.22778 40.7396 3.23864 40.6694 3.23416V3.22414ZM0.807624 2.73273C0.807624 2.6286 0.837956 2.52681 0.894798 2.44022C0.951639 2.35364 1.03243 2.28616 1.12695 2.24631C1.22148 2.20646 1.3255 2.19603 1.42585 2.21635C1.5262 2.23666 1.61836 2.2868 1.69071 2.36044C1.76305 2.43407 1.81232 2.52789 1.83228 2.63002C1.85224 2.73215 1.84201 2.83801 1.80285 2.93422C1.7637 3.03043 1.69739 3.11265 1.61232 3.17051C1.52725 3.22836 1.42723 3.25923 1.32492 3.25923C1.25605 3.26283 1.18721 3.25168 1.12285 3.2265C1.05848 3.20131 1.00003 3.16266 0.951269 3.11303C0.902509 3.0634 0.864529 3.00391 0.839784 2.9384C0.815039 2.87289 0.804086 2.80282 0.807624 2.73273Z" fill="#566079"/>
</g>
<defs>
<clipPath id="clip0_14969_7443">
<rect width="42" height="14" fill="white"/>
</clipPath>
</defs>
</svg>