<svg xmlns="http://www.w3.org/2000/svg" width="51" height="13" viewBox="0 0 51 13" fill="none">
<g clip-path="url(#clip0_14969_7478)">
<path d="M11.4343 12.9991C9.2426 12.9991 7.06946 12.7365 5.89862 12.2033C3.17634 10.9602 1.55151 8.58066 1.55151 5.83661C1.45233 3.82235 1.94261 2.53072 3.13925 1.65132C4.2601 0.828423 5.98732 0.363651 8.91602 0.0962501C10.8948 -0.084405 14.1122 0.0325776 15.404 0.0906738C18.4956 0.230741 20.297 0.782254 21.2453 1.87892C21.9226 2.66202 22.1726 3.7356 22.0097 5.16015L21.9589 5.63766C21.3187 9.051 20.1503 10.6817 17.3296 12.1062C16.1531 12.6967 13.7832 12.9991 11.4343 12.9991ZM11.6762 0.171054C10.6981 0.171054 9.71674 0.195722 8.93457 0.267347C3.29729 0.781458 1.54588 2.1336 1.72731 5.83185C1.72731 8.51064 3.31503 10.8321 5.97442 12.0457C8.36851 13.1392 15.0057 13.0803 17.253 11.9502C20.0511 10.5368 21.1534 8.9961 21.7888 5.60981L21.8396 5.14105C21.9968 3.76585 21.759 2.73525 21.1139 1.99035C20.1995 0.932679 18.4367 0.398675 15.3967 0.262587C14.6218 0.226774 13.151 0.171054 11.6754 0.171054H11.6762Z" fill="#566079"/>
<path d="M2.89785 4.26343L0.100586 4.23238L0.112693 3.20337L2.90915 3.2344C2.91805 3.2345 2.92684 3.23634 2.93502 3.2398C2.9432 3.24326 2.9506 3.24827 2.95681 3.25455C2.96303 3.26083 2.96792 3.26825 2.97123 3.27641C2.97453 3.28456 2.97619 3.29327 2.97609 3.30205L2.96559 4.19817C2.9656 4.20687 2.96384 4.21548 2.96042 4.2235C2.95699 4.23152 2.95198 4.23879 2.94567 4.24487C2.93936 4.25096 2.93187 4.25574 2.92366 4.25892C2.91545 4.26211 2.90667 4.26364 2.89785 4.26343Z" fill="#566079"/>
<path d="M1.23926 4.74072H0.540148C0.461875 4.74072 0.386798 4.71003 0.33145 4.65541C0.276103 4.60078 0.245007 4.5267 0.245007 4.44945L0.245007 3.01695C0.245007 2.93969 0.276103 2.8656 0.33145 2.81097C0.386798 2.75635 0.461875 2.72568 0.540148 2.72568H1.23926L1.23926 4.73913V4.74072Z" fill="#566079"/>
<path d="M1.2402 4.98263H0.541066C0.397631 4.98242 0.260137 4.92609 0.158713 4.82599C0.0572893 4.72589 0.000213287 4.59019 0 4.44862V3.01612C0.000426318 2.87469 0.0576076 2.73919 0.159008 2.63926C0.260409 2.53933 0.39777 2.48312 0.541066 2.48291H1.2402C1.30435 2.48291 1.36589 2.50806 1.41125 2.55284C1.45662 2.59761 1.4821 2.65834 1.4821 2.72166V4.73593C1.48319 4.76795 1.47773 4.79984 1.46606 4.82974C1.45439 4.85963 1.43674 4.8869 1.41417 4.90992C1.39159 4.93294 1.36456 4.95123 1.33467 4.96372C1.30478 4.97622 1.27265 4.98265 1.2402 4.98263ZM0.541066 2.96918C0.534539 2.96907 0.52807 2.97024 0.522009 2.97263C0.515948 2.97503 0.510421 2.97859 0.505768 2.98311C0.501115 2.98762 0.497423 2.993 0.494901 2.99894C0.492379 3.00488 0.491081 3.01127 0.491082 3.01771V4.45022C0.491082 4.4633 0.496353 4.47586 0.505728 4.48511C0.515104 4.49437 0.527807 4.49957 0.541066 4.49957H0.995058V2.97075L0.541066 2.96918Z" fill="#566079"/>
<path d="M22.2266 3.75882C22.1588 3.74043 22.0888 3.73106 22.0185 3.73096C21.8879 3.7413 21.7984 3.83999 21.7202 3.9347C21.5618 4.13578 21.4266 4.35357 21.317 4.58409C21.1799 4.85308 21.0565 5.12925 20.9436 5.40938C20.8156 5.70649 20.7105 6.0127 20.6291 6.32539C20.5695 6.57847 20.58 6.8785 20.7904 7.06632C21.0009 7.25414 21.2984 7.2207 21.5113 7.07108C21.7452 6.90634 21.8661 6.63338 21.9798 6.38189C22.1075 6.10187 22.2181 5.81459 22.3112 5.52159C22.4226 5.18933 22.5036 4.84789 22.5531 4.50134C22.5862 4.222 22.5305 3.86467 22.2306 3.75882C22.0959 3.70948 22.0371 3.92276 22.1717 3.9713C22.3846 4.05089 22.3475 4.41141 22.3161 4.57933C22.2693 4.83022 22.2095 5.07856 22.137 5.32343C22.0635 5.57424 21.9766 5.82104 21.8766 6.06276C21.7933 6.29117 21.6852 6.50998 21.554 6.71535C21.4387 6.87929 21.2065 7.05518 20.996 6.94217C20.7856 6.82916 20.809 6.52595 20.8614 6.32938C21.0035 5.82517 21.1924 5.33497 21.4258 4.86502C21.5262 4.64857 21.6418 4.4393 21.7718 4.23871C21.8286 4.13609 21.904 4.04463 21.9943 3.96891C22.0483 3.93469 22.1112 3.96016 22.1701 3.96891C22.308 3.99677 22.3685 3.78429 22.2266 3.75882Z" fill="#566079"/>
<path d="M39.567 12.9993C37.2181 12.9993 34.8482 12.6969 33.6717 12.1032C30.8494 10.6786 29.6826 9.04797 29.0432 5.64178L28.9908 5.1595C28.8295 3.73575 29.0786 2.66217 29.756 1.87906C30.7043 0.782398 32.5057 0.230885 35.5965 0.0908179C36.8866 0.0327218 40.1065 -0.083465 42.0853 0.0963942C45.014 0.363796 46.7412 0.828568 47.8612 1.65146C49.0587 2.52688 49.5482 3.8225 49.4498 5.84074C49.4498 8.57922 47.8242 10.9588 45.1027 12.2019C43.9318 12.7367 41.7579 12.9993 39.567 12.9993ZM35.6005 0.176775L35.6045 0.262731C32.5654 0.399615 30.8027 0.932823 29.8882 1.99049C29.2432 2.73539 29.0069 3.76599 29.1625 5.1412L29.2133 5.6187C29.8479 8.99783 30.9502 10.5386 33.7491 11.952C35.9924 13.0845 42.6336 13.141 45.0277 12.0475C47.6887 10.8338 49.274 8.51237 49.274 5.83995C49.4554 2.13691 47.7048 0.784787 42.0675 0.269085C40.0992 0.0892255 36.8915 0.205432 35.6029 0.264324L35.6005 0.176775Z" fill="#566079"/>
<path d="M48.1046 4.26343L50.9019 4.23238L50.8898 3.20337L48.0925 3.2344C48.0747 3.23482 48.0577 3.24215 48.0454 3.25482C48.033 3.26748 48.0262 3.28446 48.0264 3.30205L48.036 4.19816C48.0365 4.21576 48.0439 4.23246 48.0567 4.24468C48.0696 4.2569 48.0868 4.26364 48.1046 4.26343Z" fill="#566079"/>
<path d="M49.7598 2.72729H50.4589C50.5371 2.72729 50.6122 2.75798 50.6676 2.81261C50.7229 2.86723 50.754 2.94132 50.754 3.01857V4.45108C50.754 4.52833 50.7229 4.60242 50.6676 4.65704C50.6122 4.71167 50.5371 4.74235 50.4589 4.74235H49.7598V2.72729Z" fill="#566079"/>
<path d="M50.4597 4.98275H49.7606C49.7285 4.98328 49.6966 4.97749 49.6668 4.96573C49.637 4.95397 49.6098 4.93649 49.5869 4.91426C49.564 4.89204 49.5459 4.86554 49.5334 4.83631C49.521 4.80708 49.5146 4.77569 49.5146 4.744V2.72975C49.5146 2.69806 49.521 2.66667 49.5334 2.63744C49.5459 2.60821 49.564 2.58171 49.5869 2.55949C49.6098 2.53727 49.637 2.51978 49.6668 2.50802C49.6966 2.49626 49.7285 2.49047 49.7606 2.491H50.4597C50.6029 2.49121 50.7402 2.54744 50.8415 2.64739C50.9428 2.74734 50.9997 2.88286 51 3.02421V4.45671C50.9978 4.59682 50.94 4.73048 50.839 4.82889C50.7379 4.9273 50.6017 4.98256 50.4597 4.98275ZM50.0057 4.4981H50.4597C50.473 4.4981 50.4857 4.4929 50.4951 4.48364C50.5044 4.47439 50.5097 4.46183 50.5097 4.44875V3.01624C50.5097 3.0098 50.5084 3.00341 50.5059 2.99747C50.5034 2.99153 50.4997 2.98616 50.495 2.98164C50.4903 2.97712 50.4848 2.97356 50.4788 2.97116C50.4727 2.96877 50.4662 2.9676 50.4597 2.96771H50.0057V4.4981Z" fill="#566079"/>
<path d="M28.8325 3.97114C28.8758 3.95749 28.921 3.95077 28.9664 3.95124C29.047 3.96477 29.1414 4.11041 29.1865 4.17488C29.3063 4.34778 29.4126 4.52951 29.5042 4.71844C29.7362 5.18047 29.9319 5.65937 30.0896 6.15095C30.1598 6.36662 30.2509 6.63879 30.1122 6.8473C29.9735 7.05581 29.709 6.98259 29.5566 6.83854C29.3881 6.67937 29.2954 6.4446 29.2026 6.23768C29.0976 6.00205 29.0053 5.76112 28.9261 5.51587C28.8355 5.23817 28.7617 4.9554 28.7051 4.66909C28.6676 4.52439 28.658 4.374 28.6769 4.2258C28.6954 4.12632 28.7261 4.01013 28.8325 3.97193C28.9664 3.92339 28.9083 3.71011 28.7729 3.75945C28.5148 3.85256 28.4398 4.12554 28.4414 4.37623C28.4414 4.67546 28.5406 4.99062 28.6212 5.27712C28.7057 5.58184 28.81 5.88089 28.9333 6.17243C29.0438 6.43426 29.1543 6.71916 29.3446 6.93722C29.5058 7.12663 29.7873 7.25555 30.0404 7.1688C30.2936 7.08206 30.4162 6.80989 30.4073 6.55761C30.3961 6.24484 30.2549 5.92573 30.1461 5.63604C30.0372 5.34636 29.913 5.05348 29.7768 4.77096C29.6584 4.50553 29.5134 4.25251 29.3438 4.01571C29.2631 3.91225 29.172 3.77696 29.0398 3.74195C28.9507 3.72659 28.8591 3.73259 28.7729 3.75945C28.6325 3.78412 28.6922 3.9966 28.8325 3.97114Z" fill="#566079"/>
<path d="M21.1272 3.3649C21.2185 3.408 21.3066 3.45746 21.3909 3.51291C21.4118 3.52644 21.4328 3.54077 21.453 3.55589L21.49 3.58216C21.5126 3.59967 21.4901 3.58215 21.4804 3.57499C21.5142 3.6124 21.561 3.64264 21.6013 3.67686C21.6361 3.70803 21.669 3.74125 21.6997 3.77634L21.7231 3.80341C21.7489 3.83365 21.7029 3.77475 21.7183 3.79703C21.7336 3.81932 21.7449 3.83523 21.757 3.85513C21.7691 3.87502 21.7787 3.89492 21.7892 3.91561C21.7997 3.9363 21.7731 3.86865 21.7892 3.90605L21.7997 3.9379C21.7997 3.94824 21.8053 3.95938 21.8077 3.97052C21.8102 3.98166 21.8198 4.01828 21.8077 3.98008C21.7957 3.94188 21.8077 3.98007 21.8077 3.99121C21.8077 4.00235 21.8077 4.01827 21.8077 4.0318C21.8082 4.09028 21.832 4.14624 21.8739 4.18751C21.9159 4.22878 21.9727 4.25204 22.0319 4.25225C22.0907 4.25084 22.1467 4.22715 22.1883 4.18611C22.2299 4.14507 22.2539 4.08982 22.2553 4.0318C22.269 3.77952 22.1182 3.55431 21.9408 3.384C21.768 3.22193 21.5704 3.08766 21.3554 2.98608C21.3038 2.95805 21.2433 2.95067 21.1864 2.96548C21.1295 2.9803 21.0806 3.01618 21.0498 3.06566C21.0208 3.1164 21.0129 3.17631 21.028 3.23264C21.0431 3.28897 21.0798 3.33729 21.1304 3.36729L21.1272 3.3649Z" fill="#566079"/>
<path d="M29.6937 2.98041C29.4787 3.08199 29.2811 3.21626 29.1083 3.37833C28.9309 3.54546 28.7801 3.77624 28.7938 4.02613C28.7973 4.08241 28.8223 4.13528 28.8639 4.17393C28.9055 4.21259 28.9605 4.23413 29.0176 4.23413C29.0747 4.23413 29.1297 4.21259 29.1713 4.17393C29.2129 4.13528 29.2379 4.08241 29.2414 4.02613C29.2438 4.00365 29.2438 3.98098 29.2414 3.9585C29.2365 3.99272 29.2357 4.00148 29.2414 3.98397V3.97122C29.2414 3.96008 29.2462 3.94974 29.2494 3.9386C29.2526 3.92746 29.2575 3.91314 29.2615 3.9004C29.2712 3.87255 29.2615 3.90836 29.2551 3.91552C29.2672 3.89722 29.2752 3.87414 29.2865 3.85504C29.2978 3.83594 29.3115 3.81604 29.3244 3.79694C29.3527 3.75635 29.2922 3.83514 29.3244 3.79694L29.343 3.77545C29.3751 3.73832 29.4096 3.70323 29.4462 3.6704C29.4833 3.63618 29.522 3.60514 29.5607 3.57331C29.5841 3.55421 29.5171 3.60594 29.5607 3.57331L29.5913 3.55102L29.6534 3.50804C29.7397 3.45108 29.83 3.40029 29.9236 3.35604C29.9745 3.32633 30.0115 3.27802 30.0266 3.22157C30.0417 3.16512 30.0336 3.10506 30.0042 3.05442C29.9734 3.00494 29.9244 2.96908 29.8675 2.95426C29.8106 2.93944 29.7501 2.9468 29.6986 2.97484L29.6937 2.98041Z" fill="#566079"/>
<path d="M30.8925 3.49608C30.8925 3.55307 30.8696 3.60773 30.8288 3.64802C30.7879 3.68832 30.7326 3.71096 30.6748 3.71096H28.7855C28.5124 3.71116 28.2408 3.67202 27.9791 3.59477C27.6074 3.48574 26.7954 3.3019 25.531 3.3019C24.6152 3.30977 23.7032 3.42057 22.8128 3.63217C22.5932 3.6852 22.3679 3.71192 22.1419 3.71175H20.3251C20.2674 3.71175 20.212 3.68912 20.1712 3.64882C20.1304 3.60852 20.1074 3.55387 20.1074 3.49688V2.9008C20.1074 2.84381 20.1304 2.78916 20.1712 2.74886C20.212 2.70856 20.2674 2.68593 20.3251 2.68593H22.1395C22.2821 2.68619 22.4242 2.66961 22.5628 2.63658C23.534 2.40401 24.5292 2.2833 25.5286 2.27686C26.9188 2.27686 27.8388 2.48538 28.2702 2.61112C28.4372 2.66015 28.6105 2.68534 28.7847 2.68593H30.674C30.7317 2.68593 30.7871 2.70856 30.828 2.74886C30.8688 2.78916 30.8917 2.84381 30.8917 2.9008L30.8925 3.49608Z" fill="#566079"/>
<path d="M11.4343 12.9991C9.2426 12.9991 7.06946 12.7365 5.89862 12.2033C3.17634 10.9602 1.55151 8.58066 1.55151 5.83661C1.45233 3.82235 1.94261 2.53072 3.13925 1.65132C4.2601 0.828423 5.98732 0.363651 8.91602 0.0962501C10.8948 -0.084405 14.1122 0.0325776 15.404 0.0906738C18.4956 0.230741 20.297 0.782254 21.2453 1.87892C21.9226 2.66202 22.1726 3.7356 22.0097 5.16015L21.9589 5.63766C21.3187 9.051 20.1503 10.6817 17.3296 12.1062C16.1531 12.6967 13.7832 12.9991 11.4343 12.9991ZM11.6762 0.171054C10.6981 0.171054 9.71674 0.195722 8.93457 0.267347C3.29729 0.781458 1.54588 2.1336 1.72731 5.83185C1.72731 8.51064 3.31503 10.8321 5.97442 12.0457C8.36851 13.1392 15.0057 13.0803 17.253 11.9502C20.0511 10.5368 21.1534 8.9961 21.7888 5.60981L21.8396 5.14105C21.9968 3.76585 21.759 2.73525 21.1139 1.99035C20.1995 0.932679 18.4367 0.398675 15.3967 0.262587C14.6218 0.226774 13.151 0.171054 11.6754 0.171054H11.6762Z" fill="#566079"/>
<path d="M2.89785 4.26343L0.100586 4.23238L0.112693 3.20337L2.90915 3.2344C2.91805 3.2345 2.92684 3.23634 2.93502 3.2398C2.9432 3.24326 2.9506 3.24827 2.95681 3.25455C2.96303 3.26083 2.96792 3.26825 2.97123 3.27641C2.97453 3.28456 2.97619 3.29327 2.97609 3.30205L2.96559 4.19817C2.9656 4.20687 2.96384 4.21548 2.96042 4.2235C2.95699 4.23152 2.95198 4.23879 2.94567 4.24487C2.93936 4.25096 2.93187 4.25574 2.92366 4.25892C2.91545 4.26211 2.90667 4.26364 2.89785 4.26343Z" fill="#566079"/>
<path d="M1.23926 4.74072H0.540148C0.461875 4.74072 0.386798 4.71003 0.33145 4.65541C0.276103 4.60078 0.245007 4.5267 0.245007 4.44945L0.245007 3.01695C0.245007 2.93969 0.276103 2.8656 0.33145 2.81097C0.386798 2.75635 0.461875 2.72568 0.540148 2.72568H1.23926L1.23926 4.73913V4.74072Z" fill="#566079"/>
<path d="M1.2402 4.98263H0.541066C0.397631 4.98242 0.260137 4.92609 0.158713 4.82599C0.0572893 4.72589 0.000213287 4.59019 0 4.44862V3.01612C0.000426318 2.87469 0.0576076 2.73919 0.159008 2.63926C0.260409 2.53933 0.39777 2.48312 0.541066 2.48291H1.2402C1.30435 2.48291 1.36589 2.50806 1.41125 2.55284C1.45662 2.59761 1.4821 2.65834 1.4821 2.72166V4.73593C1.48319 4.76795 1.47773 4.79984 1.46606 4.82974C1.45439 4.85963 1.43674 4.8869 1.41417 4.90992C1.39159 4.93294 1.36456 4.95123 1.33467 4.96372C1.30478 4.97622 1.27265 4.98265 1.2402 4.98263ZM0.541066 2.96918C0.534539 2.96907 0.52807 2.97024 0.522009 2.97263C0.515948 2.97503 0.510421 2.97859 0.505768 2.98311C0.501115 2.98762 0.497423 2.993 0.494901 2.99894C0.492379 3.00488 0.491081 3.01127 0.491082 3.01771V4.45022C0.491082 4.4633 0.496353 4.47586 0.505728 4.48511C0.515104 4.49437 0.527807 4.49957 0.541066 4.49957H0.995058V2.97075L0.541066 2.96918Z" fill="#566079"/>
<path d="M22.2266 3.75882C22.1588 3.74043 22.0888 3.73106 22.0185 3.73096C21.8879 3.7413 21.7984 3.83999 21.7202 3.9347C21.5618 4.13578 21.4266 4.35357 21.317 4.58409C21.1799 4.85308 21.0565 5.12925 20.9436 5.40938C20.8156 5.70649 20.7105 6.0127 20.6291 6.32539C20.5695 6.57847 20.58 6.8785 20.7904 7.06632C21.0009 7.25414 21.2984 7.2207 21.5113 7.07108C21.7452 6.90634 21.8661 6.63338 21.9798 6.38189C22.1075 6.10187 22.2181 5.81459 22.3112 5.52159C22.4226 5.18933 22.5036 4.84789 22.5531 4.50134C22.5862 4.222 22.5305 3.86467 22.2306 3.75882C22.0959 3.70948 22.0371 3.92276 22.1717 3.9713C22.3846 4.05089 22.3475 4.41141 22.3161 4.57933C22.2693 4.83022 22.2095 5.07856 22.137 5.32343C22.0635 5.57424 21.9766 5.82104 21.8766 6.06276C21.7933 6.29117 21.6852 6.50998 21.554 6.71535C21.4387 6.87929 21.2065 7.05518 20.996 6.94217C20.7856 6.82916 20.809 6.52595 20.8614 6.32938C21.0035 5.82517 21.1924 5.33497 21.4258 4.86502C21.5262 4.64857 21.6418 4.4393 21.7718 4.23871C21.8286 4.13609 21.904 4.04463 21.9943 3.96891C22.0483 3.93469 22.1112 3.96016 22.1701 3.96891C22.308 3.99677 22.3685 3.78429 22.2266 3.75882Z" fill="#566079"/>
<path d="M39.567 12.9993C37.2181 12.9993 34.8482 12.6969 33.6717 12.1032C30.8494 10.6786 29.6826 9.04797 29.0432 5.64178L28.9908 5.1595C28.8295 3.73575 29.0786 2.66217 29.756 1.87906C30.7043 0.782398 32.5057 0.230885 35.5965 0.0908179C36.8866 0.0327218 40.1065 -0.083465 42.0853 0.0963942C45.014 0.363796 46.7412 0.828568 47.8612 1.65146C49.0587 2.52688 49.5482 3.8225 49.4498 5.84074C49.4498 8.57922 47.8242 10.9588 45.1027 12.2019C43.9318 12.7367 41.7579 12.9993 39.567 12.9993ZM35.6005 0.176775L35.6045 0.262731C32.5654 0.399615 30.8027 0.932823 29.8882 1.99049C29.2432 2.73539 29.0069 3.76599 29.1625 5.1412L29.2133 5.6187C29.8479 8.99783 30.9502 10.5386 33.7491 11.952C35.9924 13.0845 42.6336 13.141 45.0277 12.0475C47.6887 10.8338 49.274 8.51237 49.274 5.83995C49.4554 2.13691 47.7048 0.784787 42.0675 0.269085C40.0992 0.0892255 36.8915 0.205432 35.6029 0.264324L35.6005 0.176775Z" fill="#566079"/>
<path d="M48.1046 4.26343L50.9019 4.23238L50.8898 3.20337L48.0925 3.2344C48.0747 3.23482 48.0577 3.24215 48.0454 3.25482C48.033 3.26748 48.0262 3.28446 48.0264 3.30205L48.036 4.19816C48.0365 4.21576 48.0439 4.23246 48.0567 4.24468C48.0696 4.2569 48.0868 4.26364 48.1046 4.26343Z" fill="#566079"/>
<path d="M49.7598 2.72729H50.4589C50.5371 2.72729 50.6122 2.75798 50.6676 2.81261C50.7229 2.86723 50.754 2.94132 50.754 3.01857V4.45108C50.754 4.52833 50.7229 4.60242 50.6676 4.65704C50.6122 4.71167 50.5371 4.74235 50.4589 4.74235H49.7598V2.72729Z" fill="#566079"/>
<path d="M50.4597 4.98275H49.7606C49.7285 4.98328 49.6966 4.97749 49.6668 4.96573C49.637 4.95397 49.6098 4.93649 49.5869 4.91426C49.564 4.89204 49.5459 4.86554 49.5334 4.83631C49.521 4.80708 49.5146 4.77569 49.5146 4.744V2.72975C49.5146 2.69806 49.521 2.66667 49.5334 2.63744C49.5459 2.60821 49.564 2.58171 49.5869 2.55949C49.6098 2.53727 49.637 2.51978 49.6668 2.50802C49.6966 2.49626 49.7285 2.49047 49.7606 2.491H50.4597C50.6029 2.49121 50.7402 2.54744 50.8415 2.64739C50.9428 2.74734 50.9997 2.88286 51 3.02421V4.45671C50.9978 4.59682 50.94 4.73048 50.839 4.82889C50.7379 4.9273 50.6017 4.98256 50.4597 4.98275ZM50.0057 4.4981H50.4597C50.473 4.4981 50.4857 4.4929 50.4951 4.48364C50.5044 4.47439 50.5097 4.46183 50.5097 4.44875V3.01624C50.5097 3.0098 50.5084 3.00341 50.5059 2.99747C50.5034 2.99153 50.4997 2.98616 50.495 2.98164C50.4903 2.97712 50.4848 2.97356 50.4788 2.97116C50.4727 2.96877 50.4662 2.9676 50.4597 2.96771H50.0057V4.4981Z" fill="#566079"/>
<path d="M28.8325 3.97114C28.8758 3.95749 28.921 3.95077 28.9664 3.95124C29.047 3.96477 29.1414 4.11041 29.1865 4.17488C29.3063 4.34778 29.4126 4.52951 29.5042 4.71844C29.7362 5.18047 29.9319 5.65937 30.0896 6.15095C30.1598 6.36662 30.2509 6.63879 30.1122 6.8473C29.9735 7.05581 29.709 6.98259 29.5566 6.83854C29.3881 6.67937 29.2954 6.4446 29.2026 6.23768C29.0976 6.00205 29.0053 5.76112 28.9261 5.51587C28.8355 5.23817 28.7617 4.9554 28.7051 4.66909C28.6676 4.52439 28.658 4.374 28.6769 4.2258C28.6954 4.12632 28.7261 4.01013 28.8325 3.97193C28.9664 3.92339 28.9083 3.71011 28.7729 3.75945C28.5148 3.85256 28.4398 4.12554 28.4414 4.37623C28.4414 4.67546 28.5406 4.99062 28.6212 5.27712C28.7057 5.58184 28.81 5.88089 28.9333 6.17243C29.0438 6.43426 29.1543 6.71916 29.3446 6.93722C29.5058 7.12663 29.7873 7.25555 30.0404 7.1688C30.2936 7.08206 30.4162 6.80989 30.4073 6.55761C30.3961 6.24484 30.2549 5.92573 30.1461 5.63604C30.0372 5.34636 29.913 5.05348 29.7768 4.77096C29.6584 4.50553 29.5134 4.25251 29.3438 4.01571C29.2631 3.91225 29.172 3.77696 29.0398 3.74195C28.9507 3.72659 28.8591 3.73259 28.7729 3.75945C28.6325 3.78412 28.6922 3.9966 28.8325 3.97114Z" fill="#566079"/>
<path d="M21.1272 3.3649C21.2185 3.408 21.3066 3.45746 21.3909 3.51291C21.4118 3.52644 21.4328 3.54077 21.453 3.55589L21.49 3.58216C21.5126 3.59967 21.4901 3.58215 21.4804 3.57499C21.5142 3.6124 21.561 3.64264 21.6013 3.67686C21.6361 3.70803 21.669 3.74125 21.6997 3.77634L21.7231 3.80341C21.7489 3.83365 21.7029 3.77475 21.7183 3.79703C21.7336 3.81932 21.7449 3.83523 21.757 3.85513C21.7691 3.87502 21.7787 3.89492 21.7892 3.91561C21.7997 3.9363 21.7731 3.86865 21.7892 3.90605L21.7997 3.9379C21.7997 3.94824 21.8053 3.95938 21.8077 3.97052C21.8102 3.98166 21.8198 4.01828 21.8077 3.98008C21.7957 3.94188 21.8077 3.98007 21.8077 3.99121C21.8077 4.00235 21.8077 4.01827 21.8077 4.0318C21.8082 4.09028 21.832 4.14624 21.8739 4.18751C21.9159 4.22878 21.9727 4.25204 22.0319 4.25225C22.0907 4.25084 22.1467 4.22715 22.1883 4.18611C22.2299 4.14507 22.2539 4.08982 22.2553 4.0318C22.269 3.77952 22.1182 3.55431 21.9408 3.384C21.768 3.22193 21.5704 3.08766 21.3554 2.98608C21.3038 2.95805 21.2433 2.95067 21.1864 2.96548C21.1295 2.9803 21.0806 3.01618 21.0498 3.06566C21.0208 3.1164 21.0129 3.17631 21.028 3.23264C21.0431 3.28897 21.0798 3.33729 21.1304 3.36729L21.1272 3.3649Z" fill="#566079"/>
<path d="M29.6937 2.98041C29.4787 3.08199 29.2811 3.21626 29.1083 3.37833C28.9309 3.54546 28.7801 3.77624 28.7938 4.02613C28.7973 4.08241 28.8223 4.13528 28.8639 4.17393C28.9055 4.21259 28.9605 4.23413 29.0176 4.23413C29.0747 4.23413 29.1297 4.21259 29.1713 4.17393C29.2129 4.13528 29.2379 4.08241 29.2414 4.02613C29.2438 4.00365 29.2438 3.98098 29.2414 3.9585C29.2365 3.99272 29.2357 4.00148 29.2414 3.98397V3.97122C29.2414 3.96008 29.2462 3.94974 29.2494 3.9386C29.2526 3.92746 29.2575 3.91314 29.2615 3.9004C29.2712 3.87255 29.2615 3.90836 29.2551 3.91552C29.2672 3.89722 29.2752 3.87414 29.2865 3.85504C29.2978 3.83594 29.3115 3.81604 29.3244 3.79694C29.3527 3.75635 29.2922 3.83514 29.3244 3.79694L29.343 3.77545C29.3751 3.73832 29.4096 3.70323 29.4462 3.6704C29.4833 3.63618 29.522 3.60514 29.5607 3.57331C29.5841 3.55421 29.5171 3.60594 29.5607 3.57331L29.5913 3.55102L29.6534 3.50804C29.7397 3.45108 29.83 3.40029 29.9236 3.35604C29.9745 3.32633 30.0115 3.27802 30.0266 3.22157C30.0417 3.16512 30.0336 3.10506 30.0042 3.05442C29.9734 3.00494 29.9244 2.96908 29.8675 2.95426C29.8106 2.93944 29.7501 2.9468 29.6986 2.97484L29.6937 2.98041Z" fill="#566079"/>
<path d="M30.8925 3.49608C30.8925 3.55307 30.8696 3.60773 30.8288 3.64802C30.7879 3.68832 30.7326 3.71096 30.6748 3.71096H28.7855C28.5124 3.71116 28.2408 3.67202 27.9791 3.59477C27.6074 3.48574 26.7954 3.3019 25.531 3.3019C24.6152 3.30977 23.7032 3.42057 22.8128 3.63217C22.5932 3.6852 22.3679 3.71192 22.1419 3.71175H20.3251C20.2674 3.71175 20.212 3.68912 20.1712 3.64882C20.1304 3.60852 20.1074 3.55387 20.1074 3.49688V2.9008C20.1074 2.84381 20.1304 2.78916 20.1712 2.74886C20.212 2.70856 20.2674 2.68593 20.3251 2.68593H22.1395C22.2821 2.68619 22.4242 2.66961 22.5628 2.63658C23.534 2.40401 24.5292 2.2833 25.5286 2.27686C26.9188 2.27686 27.8388 2.48538 28.2702 2.61112C28.4372 2.66015 28.6105 2.68534 28.7847 2.68593H30.674C30.7317 2.68593 30.7871 2.70856 30.828 2.74886C30.8688 2.78916 30.8917 2.84381 30.8917 2.9008L30.8925 3.49608Z" fill="#566079"/>
</g>
<defs>
<clipPath id="clip0_14969_7478">
<rect width="51" height="13" fill="white"/>
</clipPath>
</defs>
</svg>