<?xml version="1.0" encoding="UTF-8" standalone="no"?> <svg id="Kid_avatar" data-name="Kid avatar" xmlns="http://www.w3.org/2000/svg" viewBox="0 0 64 64"><path d="M40.49,40.33A15.015,15.015,0,0,0,46.69,31h.81A4.507,4.507,0,0,0,52,26.5,4.524,4.524,0,0,0,47.5,22H47V21a1,1,0,0,0,.73-.31,1.024,1.024,0,0,0,.27-.75l-.34-5.7A13.01,13.01,0,0,0,34.69,2H29.31A13.01,13.01,0,0,0,16.34,14.24L16,19.94a1.024,1.024,0,0,0,.27.75A1,1,0,0,0,17,21v1h-.5A4.524,4.524,0,0,0,12,26.5,4.507,4.507,0,0,0,16.5,31h.8a14.788,14.788,0,0,0,6.19,9.34A13.092,13.092,0,0,0,13.43,52.35L13,60.95a1.025,1.025,0,0,0,.28.74A.975.975,0,0,0,14,62H50a.975.975,0,0,0,.72-.31,1.025,1.025,0,0,0,.28-.74l-.43-8.6A13.092,13.092,0,0,0,40.49,40.33ZM47,28V24h.5A2.509,2.509,0,0,1,50,26.5,2.5,2.5,0,0,1,47.5,29h-.53C46.99,28.66,47,28.33,47,28ZM16.5,29A2.5,2.5,0,0,1,14,26.5,2.509,2.509,0,0,1,16.5,24H17v4c0,.34.03.67.05,1ZM41,42.55V43a3.009,3.009,0,0,1-3,3H36.89a7.012,7.012,0,0,0,2.02-3.91A10.379,10.379,0,0,1,41,42.55ZM18.34,14.36A11.007,11.007,0,0,1,29.31,4h5.38A11.007,11.007,0,0,1,45.66,14.36L45.94,19H45a1,1,0,0,1-1-1v-.5A2.5,2.5,0,0,0,41.5,15h-1A2.5,2.5,0,0,0,38,17.5a1.5,1.5,0,0,1-3,0A2.5,2.5,0,0,0,32.5,15h-1A2.5,2.5,0,0,0,29,17.5a1.5,1.5,0,0,1-3,0A2.5,2.5,0,0,0,23.5,15h-1A2.5,2.5,0,0,0,20,17.5V18a1,1,0,0,1-1,1h-.94Zm4.47,22.83A12.922,12.922,0,0,1,19,28V21a3.009,3.009,0,0,0,3-3v-.5a.5.5,0,0,1,.5-.5h1a.5.5,0,0,1,.5.5,3.5,3.5,0,0,0,7,0,.5.5,0,0,1,.5-.5h1a.5.5,0,0,1,.5.5,3.5,3.5,0,0,0,7,0,.5.5,0,0,1,.5-.5h1a.5.5,0,0,1,.5.5V18a3.009,3.009,0,0,0,3,3v7a13,13,0,0,1-22.19,9.19Zm14.04,4.98a4.983,4.983,0,0,1-9.69.02A15.123,15.123,0,0,0,32,43,14.791,14.791,0,0,0,36.85,42.17ZM23,42.55a10.379,10.379,0,0,1,2.09-.46A7.012,7.012,0,0,0,27.11,46H25a2.006,2.006,0,0,1-2-2ZM20.11,60H15.05l.35-7h5.48Zm21.77,0H22.12l.87-7.89a.968.968,0,0,0-.24-.78A1.022,1.022,0,0,0,22,51H15.61A11.089,11.089,0,0,1,21,43.45V44a4,4,0,0,0,4,4H38a5,5,0,0,0,4.96-4.58A11.124,11.124,0,0,1,48.39,51H42a1.022,1.022,0,0,0-.75.33,1,1,0,0,0-.24.78Zm2.02,0-.78-7H48.6l.35,7Z"/><path d="M26,27a1,1,0,0,0,1-1V24a1,1,0,0,0-2,0v2A1,1,0,0,0,26,27Z"/><path d="M38,27a1,1,0,0,0,1-1V24a1,1,0,0,0-2,0v2A1,1,0,0,0,38,27Z"/><path d="M39,32H37c0,1.626-2.29,3-5,3s-5-1.374-5-3H25c0,2.8,3.075,5,7,5S39,34.8,39,32Z"/></svg>