<?xml version="1.0" encoding="UTF-8" standalone="no"?> <svg width="48" height="48" viewBox="0 0 48 48" fill="none" xmlns="http://www.w3.org/2000/svg">
<path d="M44.071 42.051L43.1 39.138C42.6934 37.9177 42.0298 36.7987 41.154 35.8567C40.2782 34.9146 39.2105 34.1713 38.023 33.677L33.805 31.919L38.205 30.978C38.3713 30.9422 38.5257 30.8645 38.6536 30.7524C38.7815 30.6402 38.8787 30.4973 38.936 30.3371C38.9932 30.1769 39.0087 30.0048 38.9809 29.8369C38.953 29.6691 38.8829 29.5112 38.777 29.378C37.3793 27.6357 36.4893 25.5415 36.205 23.326C36.6983 23.0016 37.1131 22.5713 37.4194 22.0666C37.7257 21.5618 37.9157 20.9951 37.9756 20.4078C38.0356 19.8204 37.9639 19.227 37.7659 18.6708C37.568 18.1146 37.2486 17.6094 36.831 17.192C37.2893 15.2551 37.3034 13.2396 36.8721 11.2964C36.4408 9.35331 35.5753 7.533 34.3405 5.9719C33.1057 4.4108 31.5337 3.14939 29.7421 2.28222C27.9505 1.41504 25.9859 0.964569 23.9955 0.964569C22.0051 0.964569 20.0405 1.41504 18.2489 2.28222C16.4573 3.14939 14.8852 4.4108 13.6504 5.9719C12.4157 7.533 11.5502 9.35331 11.1189 11.2964C10.6876 13.2396 10.7016 15.2551 11.16 17.192C10.7427 17.61 10.4237 18.1156 10.226 18.6722C10.0283 19.2287 9.95684 19.8222 10.0169 20.4098C10.0769 20.9974 10.2669 21.5642 10.573 22.0693C10.8792 22.5744 11.2938 23.005 11.787 23.33C11.5026 25.5455 10.6127 27.6397 9.21499 29.382C9.1091 29.5152 9.03893 29.6731 9.01112 29.8409C8.9833 30.0088 8.99875 30.1809 9.05602 30.3411C9.11329 30.5013 9.21047 30.6442 9.33838 30.7564C9.46629 30.8685 9.62069 30.9462 9.78699 30.982L14.187 31.923L9.97699 33.676C8.78955 34.1707 7.72196 34.9142 6.84617 35.8564C5.97038 36.7986 5.30674 37.9176 4.89999 39.138L3.92899 42.051C3.77861 42.502 3.73755 42.9822 3.80921 43.4522C3.88086 43.9222 4.06318 44.3684 4.34113 44.754C4.61907 45.1397 4.98469 45.4538 5.40785 45.6704C5.83102 45.887 6.2996 46 6.77499 46H41.225C41.7004 46 42.169 45.887 42.5921 45.6704C43.0153 45.4538 43.3809 45.1397 43.6589 44.754C43.9368 44.3684 44.1191 43.9222 44.1908 43.4522C44.2624 42.9822 44.2214 42.502 44.071 42.051V42.051ZM24.04 42.589C23.1191 41.6109 22.3343 40.513 21.707 39.325C23.2427 39.5487 24.8029 39.5463 26.338 39.318C25.7215 40.5061 24.9487 41.6062 24.04 42.589ZM12 20C12 19.4696 12.2107 18.9609 12.5858 18.5858C12.9608 18.2107 13.4696 18 14 18C14.06 18.0002 14.1199 17.9948 14.179 17.984L21 16.743C23.5357 16.286 25.9039 15.1618 27.861 13.486L28.298 14.07C29.6537 15.8823 31.5319 17.236 33.68 17.949C33.7832 17.9833 33.8913 18.0005 34 18C34.5304 18 35.0391 18.2107 35.4142 18.5858C35.7893 18.9609 36 19.4696 36 20C36 20.5304 35.7893 21.0391 35.4142 21.4142C35.0391 21.7893 34.5304 22 34 22C33.8594 21.9987 33.7194 21.9809 33.583 21.947C33.4538 21.9161 33.3197 21.9113 33.1886 21.9329C33.0575 21.9544 32.932 22.0018 32.8195 22.0724C32.7069 22.143 32.6096 22.2353 32.5331 22.3439C32.4566 22.4525 32.4025 22.5753 32.374 22.705L31.754 25.51C31.5541 26.4176 31.175 27.2762 30.6389 28.0354C30.1028 28.7945 29.4205 29.439 28.632 29.931L25.586 31.824C25.1113 32.1266 24.56 32.2874 23.997 32.2874C23.434 32.2874 22.8827 32.1266 22.408 31.824L19.371 29.935C18.5824 29.4439 17.8998 28.8002 17.3634 28.0417C16.8269 27.2832 16.4474 26.4252 16.247 25.518L15.626 22.708C15.577 22.4856 15.4536 22.2865 15.2761 22.1438C15.0986 22.001 14.8777 21.9231 14.65 21.923C14.5715 21.923 14.4934 21.9321 14.417 21.95C14.2804 21.9829 14.1405 21.9997 14 22C13.4696 22 12.9608 21.7893 12.5858 21.4142C12.2107 21.0391 12 20.5304 12 20ZM27.258 37.107C25.1256 37.5993 22.9094 37.6017 20.776 37.114C20.302 35.6851 20.0455 34.1931 20.015 32.688L21.346 33.516C22.1377 34.0207 23.0571 34.2888 23.996 34.2888C24.9349 34.2888 25.8543 34.0207 26.646 33.516L27.987 32.682C27.9674 34.1852 27.7217 35.6769 27.258 37.107ZM36.3 29.34L31.2 30.431C32.45 29.2077 33.3214 27.6503 33.71 25.945L34.136 24C34.192 24 34.244 23.982 34.299 23.978C34.592 25.8834 35.2731 27.7085 36.3 29.34V29.34ZM12.81 14.19C12.8027 12.6338 13.1201 11.0931 13.742 9.66647C14.3638 8.23983 15.2764 6.9586 16.4214 5.90461C17.5665 4.85063 18.9188 4.04708 20.3919 3.54529C21.8651 3.04351 23.4267 2.85453 24.977 2.99043C26.5273 3.12633 28.0323 3.58411 29.3957 4.33454C30.759 5.08497 31.9509 6.11154 32.8951 7.34865C33.8393 8.58577 34.5151 10.0062 34.8792 11.5193C35.2434 13.0324 35.2879 14.6048 35.01 16.136C34.7382 16.0614 34.4594 16.0158 34.178 16C32.4726 15.4051 30.9832 14.3154 29.9 12.87L28.8 11.4C28.7143 11.2849 28.6048 11.1897 28.479 11.1206C28.3532 11.0516 28.2141 11.0105 28.071 11C27.9281 10.9911 27.785 11.0124 27.651 11.0625C27.5169 11.1127 27.3949 11.1905 27.293 11.291C25.4855 13.1035 23.1661 14.3187 20.647 14.773L13.9 16C13.5899 16.0103 13.282 16.0572 12.983 16.14C12.8686 15.4963 12.8107 14.8438 12.81 14.19V14.19ZM13.701 23.976C13.756 23.976 13.808 23.996 13.864 23.998L14.294 25.95C14.683 27.6537 15.5544 29.2093 16.804 30.431L11.7 29.34C12.7268 27.7078 13.4075 25.8821 13.7 23.976H13.701ZM5.96299 43.584C5.86959 43.456 5.80837 43.3074 5.78453 43.1507C5.76068 42.9941 5.7749 42.834 5.82599 42.684L6.79999 39.771C7.11628 38.8217 7.63243 37.9512 8.31365 37.2182C8.99486 36.4852 9.8253 35.9068 10.749 35.522L18.009 32.497C18.0313 36.7778 19.6804 40.8899 22.622 44H6.77499C6.6162 44.0009 6.45953 43.9635 6.31821 43.8911C6.17689 43.8187 6.05505 43.7134 5.96299 43.584V43.584ZM42.037 43.584C41.9449 43.7134 41.8231 43.8187 41.6818 43.8911C41.5404 43.9635 41.3838 44.0009 41.225 44H25.457C28.3724 40.88 29.996 36.7702 30 32.5L37.256 35.524C38.1785 35.9092 39.0079 36.4876 39.6882 37.2201C40.3685 37.9527 40.884 38.8225 41.2 39.771L42.171 42.684C42.2225 42.8338 42.2372 42.9937 42.2139 43.1504C42.1906 43.307 42.1299 43.4557 42.037 43.584V43.584Z" fill="black"/>
</svg>
