<svg xmlns="http://www.w3.org/2000/svg" width="59" height="24" viewBox="0 0 59 24" fill="none">
<g clip-path="url(#clip0_15349_1717)">
<path d="M56.1656 3.24743C54.0531 1.09165 50.719 -7.1613e-06 46.3076 -7.1613e-06C44.4631 -0.0126839 42.6195 0.0850733 40.7871 0.292712H17.9694C16.1371 0.0850733 14.2935 -0.0126839 12.449 -7.1613e-06C8.02697 -7.1613e-06 4.70342 1.09165 2.591 3.24743C0.760232 5.08982 -0.105863 7.61752 0.00679925 10.7169C0.00679925 10.7892 0.00679925 10.8477 0.00679925 10.8891C0.00679925 16.7055 2.96067 23.5 11.2907 23.5C17.3885 23.5 27.0986 14.5256 27.0986 7.06308C27.1013 6.53987 27.0387 6.0183 26.912 5.50996C27.6625 5.10135 28.5071 4.88689 29.366 4.88689C30.2248 4.88689 31.0695 5.10135 31.8199 5.50996C31.6918 6.02046 31.628 6.54434 31.6298 7.06997C31.6298 14.5325 41.3399 23.5069 47.4413 23.5069C55.7713 23.5069 58.7075 16.7124 58.7075 10.896C58.7075 10.8546 58.7075 10.7961 58.7075 10.7238C58.8519 7.61752 57.9858 5.08982 56.1656 3.24743ZM11.2977 22.1225C1.89742 22.1225 1.43973 12.7625 1.43973 10.8891C1.43973 10.834 1.43973 10.7616 1.43973 10.6652C1.34115 7.94468 2.07345 5.76824 3.61552 4.20478C5.46741 2.32795 8.44593 1.37748 12.4736 1.37748C14.0896 1.37748 15.5085 1.43947 16.7583 1.54967C17.1491 1.58411 17.5223 1.62543 17.8814 1.6702C22.7893 2.2763 24.6271 3.73644 25.3136 5.04505C25.5879 5.59625 25.7277 6.20215 25.722 6.81513V7.06308C25.6974 13.5648 16.6421 22.1225 11.2977 22.1225ZM29.373 3.50571C28.3357 3.47684 27.3088 3.7143 26.3945 4.19445C25.6943 3.06536 24.6503 2.17903 23.4089 1.65987H35.3371C34.0957 2.17903 33.0517 3.06536 32.3515 4.19445C31.4372 3.7143 30.4103 3.47684 29.373 3.50571ZM57.3239 10.8891C57.3239 12.7625 56.8486 22.1225 47.4659 22.1225C42.1215 22.1225 33.0627 13.5648 33.0627 7.06308C33.0627 6.98043 33.0627 6.88745 33.0627 6.78758C33.06 6.18375 33.1998 5.58745 33.4711 5.04505C34.1752 3.72611 35.9954 2.29007 40.9033 1.6702C41.2554 1.62543 41.6356 1.58411 42.0264 1.54967C43.2763 1.43947 44.6916 1.37748 46.3111 1.37748C50.3353 1.37748 53.3173 2.32795 55.1657 4.20478C56.7113 5.76824 57.4436 7.94468 57.345 10.6652C57.3274 10.7616 57.3239 10.834 57.3239 10.8891Z" fill="#69696C"/>
<path d="M45.5 18.5L52 12.5" stroke="#69696C" stroke-linecap="round"/>
<path d="M45 16L49 12" stroke="#69696C" stroke-linecap="round"/>
</g>
<defs>
<clipPath id="clip0_15349_1717">
<rect width="58.75" height="23.5" fill="white"/>
</clipPath>
</defs>
</svg>