<svg xmlns="http://www.w3.org/2000/svg" width="55" height="19" viewBox="0 0 55 19" fill="none">
<g clip-path="url(#clip0_15006_12847)">
<path d="M27.5029 8.08684C28.9073 8.24643 28.6774 9.01248 30.0946 11.4893C31.5884 14.0811 33.0247 17.7261 38.655 18.6645C44.2854 19.6029 47.5921 15.8493 50.0817 12.9192C52.5713 9.98916 54.7098 3.15232 54.7098 3.15232L54.8758 1.77346C55.0418 0.388215 50.4073 -0.326764 43.6726 0.222227C36.9379 0.771217 30.7521 4.42265 30.7521 4.42265C28.6652 5.27414 26.3278 5.27414 24.2408 4.42265C24.2408 4.42265 18.0551 0.777601 11.3204 0.222227C4.58571 -0.333148 -0.0552164 0.388215 0.110757 1.77346L0.276738 3.15232C0.276738 3.15232 2.43441 9.99554 4.91764 12.9575C7.40086 15.9195 10.714 19.6348 16.3443 18.7028C21.9747 17.7708 23.411 14.1194 24.8983 11.5276C26.3283 9.01247 26.0921 8.24643 27.5029 8.08684ZM49.4178 10.768C48.0007 15.1216 42.8491 19.2199 37.4422 17.5027C32.0352 15.7855 30.1521 9.05716 30.4202 7.45487C30.6883 5.85258 34.1929 2.78844 41.0744 1.82452C47.8091 0.886128 49.1369 3.10124 49.1369 3.10124C49.1369 3.10124 51.0776 5.69299 49.4178 10.768ZM5.8624 3.10763C5.8624 3.10763 7.1838 0.898902 13.9185 1.83091C20.8064 2.79483 24.2983 5.86536 24.5728 7.46126C24.8473 9.05716 22.9769 15.7983 17.5508 17.5091C12.1247 19.2199 6.99232 15.128 5.56878 10.7743C3.92819 5.69298 5.8624 3.09485 5.8624 3.09485V3.10763Z" fill="#69696C"/>
<path d="M40.0001 5.69225L45.1371 9.51476" stroke="#69696C" stroke-width="0.8" stroke-linecap="round"/>
<path d="M42.4813 5.10502L45.567 7.49847" stroke="#69696C" stroke-width="0.8" stroke-linecap="round"/>
</g>
<defs>
<clipPath id="clip0_15006_12847">
<rect width="54.7778" height="18.7742" fill="white" transform="translate(0.110352 0.0370483)"/>
</clipPath>
</defs>
</svg>