<svg xmlns="http://www.w3.org/2000/svg" width="56" height="19" viewBox="0 0 56 19" fill="none">
<g clip-path="url(#clip0_15006_12871)">
<path d="M28.2094 2.47414C28.8778 2.45212 29.5406 2.60674 30.1345 2.92324C30.5188 3.14869 30.9413 3.29663 31.3794 3.35914H31.495C31.4576 3.39099 31.4232 3.42637 31.3923 3.46481C31.0885 3.7565 30.8308 4.0952 30.6286 4.46869C30.5515 4.60312 30.5051 4.75383 30.4928 4.90943C30.4806 5.06503 30.5029 5.22148 30.558 5.36691C30.7186 5.69571 30.9936 5.95032 31.3281 6.08019C31.3188 6.23194 31.3188 6.38415 31.3281 6.5359C31.6808 9.5335 32.9016 12.3526 34.8319 14.6264C36.6352 16.9314 40.0106 19.4477 45.6386 18.8995C51.2665 18.3514 52.8581 14.8312 53.4741 12.7111C54.0902 10.5911 54.8025 6.72744 54.8025 6.72744L55.38 5.84903C55.5134 5.64091 55.5868 5.39821 55.5918 5.14895V2.61283C55.5911 2.38845 55.5203 2.17025 55.3897 1.99061C55.259 1.81097 55.0756 1.67944 54.8666 1.61554C51.0228 0.540804 47.0547 0.00977664 43.0717 0.0370729C43.0717 0.0370729 38.0791 -0.00255171 34.787 1.62876C34.787 1.62876 31.8094 2.91663 31.3602 5.49899C31.2234 5.42458 31.1116 5.30951 31.0393 5.16877C31.0169 5.09991 31.0098 5.02673 31.0187 4.95468C31.0276 4.88263 31.0522 4.81358 31.0907 4.75268C31.264 4.43267 31.48 4.13924 31.7324 3.8809C31.957 3.64974 32.111 3.48463 32.0917 3.26008C32.0859 3.19879 32.0668 3.13964 32.0357 3.08704C32.0046 3.03444 31.9623 2.98973 31.912 2.95625C31.7626 2.86868 31.5959 2.81678 31.4243 2.80436C31.0497 2.75166 30.6882 2.62615 30.3591 2.43451C29.679 2.09109 28.9316 1.91253 28.174 1.91253C27.4165 1.91253 26.669 2.09109 25.9889 2.43451C25.6598 2.62615 25.2983 2.75166 24.9236 2.80436C24.7521 2.81678 24.5855 2.86868 24.436 2.95625C24.3858 2.98973 24.3435 3.03444 24.3124 3.08704C24.2813 3.13964 24.2621 3.19879 24.2563 3.26008C24.2563 3.48463 24.3974 3.64974 24.6156 3.8809C24.868 4.13924 25.084 4.43267 25.2573 4.75268C25.2958 4.81358 25.3204 4.88263 25.3293 4.95468C25.3382 5.02673 25.3312 5.09991 25.3087 5.16877C25.2364 5.30951 25.1246 5.42458 24.9879 5.49899C24.5451 2.91663 21.561 1.62876 21.561 1.62876C18.2754 -0.00255171 13.2764 0.0370729 13.2764 0.0370729C9.29333 0.00977664 5.32522 0.540804 1.48143 1.61554C1.27364 1.68062 1.09161 1.81266 0.962216 1.9922C0.832824 2.17174 0.762909 2.38929 0.762695 2.61283V5.16877C0.763612 5.4177 0.834935 5.66097 0.968013 5.86884L1.54558 6.74725C1.54558 6.74725 2.25145 10.6109 2.87392 12.7309C3.4964 14.851 5.08151 18.3778 10.7095 18.9194C16.3374 19.4609 19.6936 16.938 21.5161 14.6462C23.4457 12.3712 24.6684 9.55307 25.0263 6.55572C25.0358 6.40397 25.0358 6.25175 25.0263 6.10001C25.363 5.97097 25.6402 5.71637 25.8029 5.38673C25.8566 5.2407 25.8775 5.08408 25.8641 4.92856C25.8508 4.77303 25.8035 4.62259 25.7258 4.4885C25.5256 4.11365 25.2677 3.77464 24.9622 3.48463L24.8659 3.37895H24.975C25.4132 3.31645 25.8357 3.1685 26.2199 2.94305C26.8138 2.62655 27.4766 2.47193 28.1451 2.49395L28.2094 2.47414ZM51.2152 14.6859C49.7778 17.1956 45.5295 19.1439 40.0106 17.3277C34.4918 15.5114 32.9902 7.16332 34.4341 4.48189C34.4341 4.48189 35.7175 1.31174 42.3979 1.12681C49.0783 0.941886 51.5104 2.40148 52.6206 4.55455C53.7308 6.70762 52.6527 12.1695 51.2152 14.6859ZM3.7852 4.53474C4.89539 2.38167 7.33398 0.915469 14.0079 1.107C20.6819 1.29853 21.9653 4.46208 21.9653 4.46208C23.4092 7.14351 21.914 15.4718 16.3951 17.3079C10.8763 19.1439 6.62167 17.1956 5.1842 14.6661C3.74673 12.1365 2.6686 6.69441 3.7852 4.53474Z" fill="#69696C"/>
<path d="M6.5558 11.6922L11.6928 15.5148" stroke="#69696C" stroke-width="0.8" stroke-linecap="round"/>
<path d="M9.037 11.105L12.1227 13.4985" stroke="#69696C" stroke-width="0.8" stroke-linecap="round"/>
</g>
<defs>
<clipPath id="clip0_15006_12871">
<rect width="54.7778" height="18.9615" fill="white" transform="translate(0.814453 0.0370483)"/>
</clipPath>
</defs>
</svg>