<svg xmlns="http://www.w3.org/2000/svg" width="54" height="21" viewBox="0 0 54 21" fill="none">
<path d="M53.7403 6.63632H52.6054C52.5703 6.53565 52.5291 6.43722 52.4821 6.34157L51.1562 3.67832C50.9207 3.20475 50.5568 2.80757 50.1065 2.53245L46.6411 0.411619C46.2015 0.142361 45.6965 -5.20648e-05 45.1815 1.05067e-05H37.28C36.9116 -0.000955347 36.5466 0.0714584 36.2062 0.21306C35.8658 0.354662 35.5567 0.56264 35.2969 0.82497L31.0231 5.11721C30.7675 5.37573 30.5643 5.68168 30.4249 6.01804C29.481 5.62823 28.387 5.44336 27.0186 5.44336H26.9769C25.6084 5.44336 24.5144 5.62823 23.5714 6.01804C23.4317 5.68184 23.2285 5.37595 22.9732 5.11721L18.6986 0.82497C18.4387 0.562601 18.1297 0.354595 17.7893 0.212991C17.4489 0.0713865 17.0839 -0.00100348 16.7154 1.05067e-05H8.81393C8.29898 -0.00014214 7.79394 0.142277 7.35433 0.411619L3.88811 2.53245C3.43801 2.80758 3.07442 3.20478 2.83921 3.67832L1.51246 6.34157C1.46619 6.43755 1.42503 6.53594 1.38916 6.63632H0.259511C0.190426 6.63632 0.124168 6.66389 0.075317 6.71295C0.0264661 6.76201 -0.000976562 6.82855 -0.000976562 6.89794V7.59558C-0.000976562 7.68809 0.0356207 7.77681 0.100755 7.84223C0.16589 7.90765 0.254226 7.9444 0.346341 7.9444L1.25979 8.06561C1.26847 8.12143 1.27802 8.17723 1.29017 8.23217L2.80882 14.8031C2.93691 15.3597 3.23104 15.8638 3.65193 16.2481L7.33175 19.6185C7.84855 20.0917 8.52272 20.3539 9.22203 20.3537H15.1941C15.8352 20.3529 16.4567 20.1323 16.9559 19.7284L21.6013 15.962C22.131 15.5332 22.4872 14.9253 22.6033 14.2519L23.7555 7.58424C23.8045 7.29087 23.8072 6.99157 23.7633 6.69737C24.6368 6.32064 25.6658 6.14187 26.976 6.14187H27.0177C28.3314 6.14187 29.3621 6.31628 30.2304 6.69737C30.1858 6.99149 30.1882 7.29086 30.2373 7.58424L31.3895 14.2519C31.5057 14.9253 31.8618 15.5332 32.3916 15.962L37.0369 19.7284C37.5362 20.1322 38.1577 20.3527 38.7987 20.3537H44.7656C45.465 20.3542 46.1393 20.092 46.6559 19.6185L50.3366 16.2481C50.7572 15.8637 51.0511 15.3596 51.1788 14.8031L52.7044 8.23915C52.7174 8.18421 52.7261 8.1284 52.7357 8.07259L53.6491 7.95137C53.7412 7.95137 53.8296 7.91462 53.8947 7.84921C53.9598 7.78379 53.9964 7.69507 53.9964 7.60255V6.90491C53.9973 6.87034 53.9914 6.83592 53.979 6.80366C53.9666 6.77139 53.948 6.74192 53.9241 6.71694C53.9003 6.69196 53.8718 6.67198 53.8402 6.65814C53.8087 6.6443 53.7747 6.63689 53.7403 6.63632V6.63632ZM23.0644 7.47088L21.9121 14.1386C21.8251 14.6436 21.5581 15.0995 21.1611 15.4214L16.5157 19.1869C16.1413 19.4901 15.675 19.6556 15.1941 19.656H9.22724C8.70297 19.6563 8.19754 19.4597 7.81018 19.1049L4.12949 15.7344C3.81415 15.4464 3.59392 15.0685 3.49825 14.6513L1.97874 8.07957C1.86832 7.60031 1.92757 7.09739 2.14631 6.65725L3.4722 3.99313C3.64869 3.63815 3.92137 3.34041 4.25887 3.13416L7.72683 1.01333C8.05658 0.811226 8.43545 0.704407 8.82175 0.704629H16.7232C16.9995 0.703872 17.2732 0.758121 17.5285 0.864246C17.7838 0.97037 18.0156 1.12626 18.2106 1.32291L22.4843 5.61602C22.7219 5.85593 22.8985 6.14965 22.9995 6.47244C23.1004 6.79523 23.1227 7.13765 23.0644 7.47088ZM52.0219 8.08131L50.5033 14.6522C50.4075 15.0698 50.1869 15.448 49.8712 15.7362L46.1922 19.1049C45.8046 19.4599 45.2988 19.6564 44.7743 19.656H38.8074C38.3267 19.6556 37.8607 19.49 37.4867 19.1869L32.8413 15.4205C32.4439 15.0991 32.1766 14.6435 32.0894 14.1386L30.9372 7.47088C30.8799 7.13723 30.9031 6.79465 31.005 6.4719C31.1068 6.14915 31.2842 5.85564 31.5224 5.61602L35.7961 1.32291C35.9911 1.1263 36.2229 0.970436 36.4782 0.864315C36.7335 0.758193 37.0072 0.70392 37.2835 0.704629H45.185C45.571 0.704432 45.9496 0.811255 46.279 1.01333L49.7453 3.13416C50.0826 3.34064 50.3552 3.63832 50.5319 3.99313L51.8543 6.65812C52.0732 7.09791 52.1325 7.6006 52.0219 8.07957V8.08131Z" fill="#69696C"/>
<path d="M42.0001 5.69225L47.1371 9.51476" stroke="#69696C" stroke-width="0.8" stroke-linecap="round"/>
<path d="M44.4813 5.10502L47.567 7.49847" stroke="#69696C" stroke-width="0.8" stroke-linecap="round"/>
</svg>