<svg xmlns="http://www.w3.org/2000/svg" width="54" height="18" viewBox="0 0 54 18" fill="none">
<g clip-path="url(#clip0_15013_13489)">
<path d="M26.9969 3.30183C25.8788 3.30908 24.7717 3.51222 23.7308 3.90108C14.3354 -2.88241 2.50461 1.10858 0.346122 1.92955C0.24394 1.96804 0.156284 2.03492 0.0945558 2.12149C0.0328276 2.20806 -0.000115775 2.3103 9.01897e-06 2.41494V3.83517C-0.000547385 3.9301 0.0246495 4.02356 0.0731594 4.1065C0.121669 4.18944 0.191847 4.25904 0.276899 4.30857C1.0661 4.74577 1.66616 5.43614 1.96971 6.25612C2.39134 7.65237 2.81297 16.1737 10.9561 17.498C19.0992 18.8224 24.3098 12.2426 24.1713 8.38346C24.1823 7.94514 24.0623 7.51287 23.8252 7.13702C23.4791 6.63964 24.3916 5.33928 27.0157 5.38123C29.6462 5.33329 30.5524 6.63964 30.2063 7.13702C29.9692 7.51287 29.8491 7.94514 29.8602 8.38346C29.7028 12.2426 34.8945 18.8224 43.0754 17.498C51.2563 16.1737 51.6401 7.65237 52.0681 6.25612C52.3661 5.43321 52.9676 4.74121 53.7609 4.30857C53.8443 4.25789 53.9129 4.18788 53.9603 4.10509C54.0076 4.0223 54.0321 3.92943 54.0315 3.83517V2.41494C54.0325 2.31012 53.9999 2.20749 53.938 2.12077C53.8762 2.03404 53.788 1.96734 53.6854 1.92955C51.5269 1.10858 39.6961 -2.86443 30.3007 3.90108C29.248 3.50786 28.1276 3.30465 26.9969 3.30183ZM11.0756 16.707C2.26548 15.131 3.12132 5.68684 4.70715 3.81119C4.70715 3.81119 6.51953 0.982739 11.6924 0.982739C16.8652 0.982739 21.4905 2.82243 22.3904 6.7535C23.2903 10.6846 19.8732 18.289 11.0756 16.707ZM31.5781 6.7535C32.5032 2.82243 37.1348 0.982739 42.2762 0.982739C47.4176 0.982739 49.2614 3.81119 49.2614 3.81119C50.8472 5.68684 51.6968 15.131 42.8992 16.707C34.1016 18.283 30.6531 10.6846 31.5781 6.7535Z" fill="#69696C"/>
<path d="M42.5 14.5L46.5 9.5" stroke="#69696C" stroke-width="0.8" stroke-linecap="round"/>
<path d="M42 12L44.5 9" stroke="#69696C" stroke-width="0.8" stroke-linecap="round"/>
</g>
<defs>
<clipPath id="clip0_15013_13489">
<rect width="54" height="17.6538" fill="white"/>
</clipPath>
</defs>
</svg>