<svg xmlns="http://www.w3.org/2000/svg" width="54" height="14" viewBox="0 0 54 14" fill="none">
<g clip-path="url(#clip0_15013_13502)">
<path d="M27 3.48572C27.5951 3.48991 28.1891 3.53642 28.7776 3.6249C29.8974 3.75142 30.0429 4.40934 30.0429 4.40934C30.0429 4.40934 30.859 7.1106 31.9913 9.80554C33.1237 12.5005 34.4079 13.0066 34.4079 13.0066C37.8936 14.6008 45.0675 13.7847 46.8768 13.538C48.686 13.2912 50.2549 13.0066 51.1785 11.4757C52.1021 9.94473 52.4438 5.04828 52.564 4.15629C52.6842 3.26431 54.019 3.41613 54.019 3.41613V1.42339C54.019 0.999542 52.0642 0.790779 46.1682 0.158165C40.2723 -0.47445 30.6945 1.20831 30.6945 1.20831C28.2518 1.65536 25.7482 1.65536 23.3055 1.20831C23.3055 1.20831 13.753 -0.493422 7.85075 0.145519C1.94846 0.78446 0.0379569 0.999549 0 1.41075V3.40348C0 3.40348 1.26522 3.25799 1.45501 4.14365C1.64479 5.02931 1.91682 9.93839 2.84043 11.463C3.76405 12.9876 5.33295 13.2786 7.14223 13.5253C8.9515 13.772 16.1317 14.5881 19.6111 12.9939C19.6111 12.9939 20.8763 12.4942 22.0276 9.79289C23.179 7.09163 23.9824 4.39669 23.9824 4.39669C23.9824 4.39669 24.1089 3.76406 25.2477 3.61224C25.8281 3.52918 26.4136 3.48691 27 3.48572ZM50.7294 11.0138C50.3435 12.5068 47.8004 12.9496 46.1113 13.1647C43.347 13.4782 40.5586 13.5205 37.7861 13.2913C35.4581 12.9686 34.8191 13.0762 33.3957 11.3934C31.9724 9.71065 30.6628 4.6434 30.5553 4.11201C30.5079 3.65631 30.6109 3.19764 30.8484 2.80589C31.086 2.41414 31.4452 2.11081 31.8711 1.94214C33.0415 1.41075 37.8367 0.948933 37.8367 0.948933C41.33 0.586333 44.8545 0.65219 48.3318 1.14504C50.4637 1.49931 51.4632 2.06866 51.5834 3.6755C51.5617 6.1451 51.2754 8.60526 50.7294 11.0138ZM2.41659 3.68183C2.54312 2.08132 3.53631 1.51196 5.66822 1.15137C9.14553 0.658649 12.67 0.592792 16.1633 0.955265C16.1633 0.955265 20.9648 1.41708 22.1352 1.94848C22.5593 2.11973 22.9166 2.42358 23.1538 2.81467C23.3909 3.20576 23.4952 3.6631 23.451 4.11834C23.3435 4.64974 22.0276 9.72962 20.6043 11.3997C19.1809 13.0698 18.5483 12.9623 16.2202 13.2976C13.4456 13.5269 10.6551 13.4845 7.88871 13.1711C6.19963 12.956 3.66283 12.5384 3.27061 11.0202C2.72459 8.61159 2.4383 6.15143 2.41659 3.68183Z" fill="#69696C"/>
<path d="M6.68156 8.60141L11.3545 4.22381" stroke="#69696C" stroke-width="0.8" stroke-linecap="round"/>
<path d="M6.54331 6.05538L9.44606 3.4431" stroke="#69696C" stroke-width="0.8" stroke-linecap="round"/>
</g>
<defs>
<clipPath id="clip0_15013_13502">
<rect width="54" height="13.9681" fill="white"/>
</clipPath>
</defs>
</svg>