<svg xmlns="http://www.w3.org/2000/svg" width="57" height="24" viewBox="0 0 57 24" fill="none">
<g clip-path="url(#clip0_15334_1673)">
<path d="M13.847 23.51C11.5236 23.51 9.25232 22.8206 7.32048 21.5289C5.38864 20.2373 3.88296 18.4014 2.99383 16.2535C2.1047 14.1055 1.87206 11.742 2.32534 9.46172C2.77861 7.18147 3.89744 5.08693 5.54033 3.44297C7.18323 1.799 9.2764 0.679444 11.5552 0.225874C13.8339 -0.227695 16.1959 0.0050933 18.3425 0.894801C20.489 1.78451 22.3237 3.29118 23.6145 5.22428C24.9053 7.15738 25.5943 9.43009 25.5943 11.755C25.5919 14.8719 24.3535 17.8605 22.151 20.0644C19.9484 22.2684 16.9618 23.5076 13.847 23.51V23.51ZM13.847 1.97713C11.9143 1.97713 10.0251 2.55059 8.4182 3.625C6.81128 4.69941 5.55885 6.2265 4.81926 8.01317C4.07968 9.79985 3.88617 11.7659 4.26321 13.6626C4.64025 15.5593 5.57089 17.3015 6.93746 18.669C8.30403 20.0365 10.0451 20.9677 11.9406 21.345C13.8361 21.7223 15.8008 21.5286 17.5864 20.7886C19.3719 20.0485 20.898 18.7953 21.9717 17.1873C23.0454 15.5793 23.6185 13.6889 23.6185 11.755C23.6161 9.16248 22.5859 6.6768 20.7539 4.84361C18.9219 3.01041 16.4378 1.97949 13.847 1.97713V1.97713Z" fill="#69696C"/>
<path d="M42.5774 23.51C40.254 23.51 37.9828 22.8206 36.0509 21.5289C34.1191 20.2373 32.6134 18.4014 31.7243 16.2535C30.8352 14.1055 30.6025 11.742 31.0558 9.46172C31.5091 7.18147 32.6279 5.08693 34.2708 3.44297C35.9137 1.799 38.0069 0.679444 40.2856 0.225874C42.5644 -0.227695 44.9264 0.0050933 47.0729 0.894801C49.2195 1.78451 51.0542 3.29118 52.345 5.22428C53.6358 7.15738 54.3247 9.43009 54.3247 11.755C54.3224 14.8719 53.084 17.8605 50.8814 20.0644C48.6789 22.2684 45.6923 23.5076 42.5774 23.51V23.51ZM42.5774 1.97713C40.6448 1.97713 38.7556 2.55059 37.1487 3.625C35.5417 4.69941 34.2893 6.2265 33.5497 8.01317C32.8101 9.79985 32.6166 11.7659 32.9937 13.6626C33.3707 15.5593 34.3014 17.3015 35.6679 18.669C37.0345 20.0365 38.7756 20.9677 40.6711 21.345C42.5666 21.7223 44.5313 21.5286 46.3168 20.7886C48.1023 20.0485 49.6284 18.7953 50.7021 17.1873C51.7758 15.5793 52.3489 13.6889 52.3489 11.755C52.3466 9.16248 51.3163 6.6768 49.4843 4.84361C47.6523 3.01041 45.1683 1.97949 42.5774 1.97713V1.97713Z" fill="#69696C"/>
<path d="M28.212 6.24571C28.212 6.24571 25.6434 6.17849 24.2109 8.36815L24.6061 11.1144C24.6061 11.1144 25.4073 8.67955 28.212 8.67955C31.0167 8.67955 31.8179 11.1144 31.8179 11.1144L32.2131 8.36815C30.7806 6.17849 28.212 6.24571 28.212 6.24571Z" fill="#69696C"/>
<path d="M2.5429 11.1144H0.790335C0.353845 11.1144 0 11.4685 0 11.9053V13.2606C0 13.6974 0.353845 14.0515 0.790335 14.0515H2.5429C2.97939 14.0515 3.33324 13.6974 3.33324 13.2606V11.9053C3.33324 11.4685 2.97939 11.1144 2.5429 11.1144Z" fill="#69696C"/>
<path d="M53.8809 14.0504H55.6335C56.07 14.0504 56.4238 13.6963 56.4238 13.2596V11.9042C56.4238 11.4675 56.07 11.1134 55.6335 11.1134H53.8809C53.4444 11.1134 53.0906 11.4675 53.0906 11.9042V13.2596C53.0906 13.6963 53.4444 14.0504 53.8809 14.0504Z" fill="#69696C"/>
<path d="M9.4043 9.68062L12.1907 6.22327" stroke="#69696C" stroke-width="0.8" stroke-linecap="round"/>
<path d="M8.35938 7.95191L10.1009 5.8775" stroke="#69696C" stroke-width="0.8" stroke-linecap="round"/>
</g>
<defs>
<clipPath id="clip0_15334_1673">
<rect width="56.424" height="23.51" fill="white"/>
</clipPath>
</defs>
</svg>