<svg xmlns="http://www.w3.org/2000/svg" width="54" height="19" viewBox="0 0 54 19" fill="none">
<path d="M27 6.54255C27.3812 6.52134 27.7585 6.62831 28.0718 6.84639C28.3852 7.06447 28.6165 7.38113 28.7291 7.74594C29.0901 9.08232 29.1281 9.19 30.1731 12.5025C33.0169 18.8044 38.2737 18.874 38.2737 18.874C38.2737 18.874 39.3885 18.912 42.7769 18.874C46.1654 18.836 48.1731 17.6833 49.6172 15.9923C51.2322 14.0922 52.4609 8.28428 52.4609 8.28428L52.8789 5.75085C52.9121 5.56294 53.0165 5.39506 53.1703 5.28217L53.8037 4.83882C53.8638 4.79524 53.9129 4.73816 53.947 4.67216C53.9811 4.60617 53.9993 4.5331 54 4.45882V0.969016C54 0.801039 53.9333 0.639951 53.8145 0.521174C53.6957 0.402397 53.5346 0.335659 53.3666 0.335659C51.2702 0.253323 44.4996 0 41.3329 0C38.1671 0.0227527 35.0187 0.470076 31.9718 1.33003C30.8973 1.78766 29.9291 2.46261 29.1281 3.31244H24.8783C24.0772 2.46261 23.109 1.78766 22.0345 1.33003C18.9855 0.470338 15.835 0.0230252 12.6671 0C9.50035 0 2.7171 0.253323 0.633357 0.335659C0.46538 0.335659 0.304292 0.402397 0.185515 0.521174C0.0667376 0.639951 0 0.801039 0 0.969016V4.45882C0.000732746 4.5331 0.0188804 4.60617 0.0529795 4.67216C0.0870785 4.73816 0.136177 4.79524 0.196339 4.83882L0.829696 5.28217C0.90686 5.33713 0.97235 5.40687 1.02236 5.48733C1.07237 5.56778 1.10593 5.65733 1.12105 5.75085L1.54539 8.28428C1.54539 8.28428 2.76778 14.0922 4.38918 15.9923C5.8269 17.6833 7.8473 18.836 11.2294 18.874C14.6115 18.912 15.7326 18.874 15.7326 18.874C15.7326 18.874 20.9894 18.8044 23.8332 12.5025C24.8783 9.19 24.9163 9.08232 25.2709 7.74594C25.3854 7.38232 25.6172 7.06693 25.9301 6.84917C26.243 6.63141 26.6193 6.52356 27 6.54255ZM50.2315 11.5524C49.3892 15.4982 46.6657 17.544 42.6692 17.829C38.6728 18.114 35.9494 17.6833 33.7516 15.6882C31.5539 13.6931 30.3885 9.35465 30.5341 6.30821C30.7115 2.55874 35.6453 2.31173 35.6453 2.31173C44.4237 1.61504 47.3371 2.04572 49.0028 2.94509C51.0929 4.10413 51.0042 7.90428 50.2315 11.5524V11.5524ZM4.99719 2.95776C6.66926 2.04573 9.5827 1.61505 18.361 2.32441C18.361 2.32441 23.2949 2.57142 23.4722 6.32089C23.6179 9.38 22.4462 13.7565 20.2484 15.7009C18.0507 17.6453 15.3336 18.133 11.3371 17.8416C7.34062 17.5503 4.61085 15.5109 3.77482 11.5651C3.01479 7.9043 2.91345 4.10414 4.99719 2.95776V2.95776Z" fill="#69696C"/>
<path d="M8.5 10.5L12.5 5.5" stroke="#69696C" stroke-width="0.8" stroke-linecap="round"/>
<path d="M8 8L10.5 5" stroke="#69696C" stroke-width="0.8" stroke-linecap="round"/>
</svg>