<svg xmlns="http://www.w3.org/2000/svg" width="70" height="24" viewBox="0 0 70 24" fill="none">
<path d="M12.0056 23.1482C8.91604 22.43 6.54653 21.0038 5.21322 19.0618C4.25751 17.6722 3.5711 15.4619 2.71052 11.0413C1.99923 7.39164 1.64505 6.55911 0.633724 6.17509C0.027808 5.94497 0 5.82918 0 3.74198C0 2.27626 0.106841 1.4833 0.320521 1.34259C0.895703 0.97176 8.75944 0.249155 14.2156 0.0718016C20.2031 -0.126071 21.5686 0.0102398 28.0126 1.45838C33.5962 2.70718 35.7695 2.70718 41.5667 1.44958C49.6032 -0.294631 54.2441 -0.41482 63.9022 0.863293C66.5966 1.2224 68.8915 1.51554 69.0013 1.51554C69.111 1.51554 69.1945 2.55914 69.1945 3.82846C69.1945 5.85702 69.1359 6.15896 68.713 6.29381C67.6709 6.62507 67.3299 7.4532 66.4459 11.7507C65.4492 16.6037 64.6062 18.7598 63.0255 20.4747C61.8547 21.7572 59.7018 22.8463 57.5694 23.2596C55.6067 23.6304 51.014 23.5645 48.987 23.135C44.065 22.0885 40.7486 18.4344 38.2459 11.2919C37.8068 10.0519 37.2756 8.76063 37.0531 8.42204C36.2994 7.26852 34.6704 6.89622 33.3532 7.57778C32.5307 8.00138 31.8487 9.15638 30.7188 12.0014C28.2 18.3802 25.3607 21.4362 20.6494 22.8595C18.6868 23.4457 13.9668 23.6099 11.9998 23.1526L12.0056 23.1482ZM19.1771 22.1002C20.3199 21.8293 21.4274 21.4265 22.4774 20.8998C24.222 19.969 26.8067 17.3703 27.6614 15.6833C29.2055 12.6536 30.1495 8.35462 29.6621 6.55031C28.6083 2.67054 21.0271 0.323909 12.5384 1.24732C9.22632 1.61082 7.59737 2.22496 6.3709 3.59248C4.97173 5.13882 4.53559 6.81707 4.54437 10.5825C4.54437 14.0006 4.79903 15.2948 5.86158 17.4392C7.03243 19.8019 8.95702 21.3458 11.6353 22.0709C13.4575 22.5604 16.9642 22.578 19.1859 22.1031L19.1771 22.1002ZM58.7212 21.8452C60.5638 21.1929 61.8561 20.249 62.7445 18.9005C63.769 17.3498 64.2081 15.8034 64.5711 12.4381C65.0526 7.96913 64.6047 5.40265 63.0533 3.7625C61.4434 2.06812 59.412 1.52874 53.9631 1.34699C46.2575 1.09048 41.697 2.46387 40.0841 5.53163C39.1709 7.26852 39.85 11.7375 41.5784 15.3667C43.2454 18.8595 46.215 21.2677 49.9017 22.109C52.0751 22.6044 57.0044 22.4593 58.7212 21.8496V21.8452Z" fill="#69696C"/>
<path d="M9.4043 9.68062L12.1907 6.22327" stroke="#69696C" stroke-width="0.8" stroke-linecap="round"/>
<path d="M8.35938 7.95191L10.1009 5.8775" stroke="#69696C" stroke-width="0.8" stroke-linecap="round"/>
</svg>